<?xml version="1.0" encoding="UTF-8"?>
<svg width="1500px" height="146px" viewBox="0 0 1500 146" version="1.1" xmlns="http://www.w3.org/2000/svg" xmlns:xlink="http://www.w3.org/1999/xlink">
    <title>Artboard</title>
    <g id="Artboard" stroke="none" stroke-width="1" fill="none" fill-rule="evenodd">
        <rect id="Rectangle" fill="#C8A977" x="867" y="0" width="220" height="146"></rect>
        <path d="M433.14,116 L433.14,92.84 L450.06,92.84 C457.5,92.84 463.96,91.62 469.44,89.18 C474.92,86.74 479.14,83.22 482.1,78.62 C485.06,74.02 486.54,68.64 486.54,62.48 C486.54,56.24 485.06,50.84 482.1,46.28 C479.14,41.72 474.92,38.2 469.44,35.72 C463.96,33.24 457.5,32 450.06,32 L450.06,32 L413.7,32 L413.7,116 L433.14,116 Z M448.98,77 L433.14,77 L433.14,47.84 L448.98,47.84 C454.82,47.84 459.26,49.1 462.3,51.62 C465.34,54.14 466.86,57.76 466.86,62.48 C466.86,67.12 465.34,70.7 462.3,73.22 C459.26,75.74 454.82,77 448.98,77 L448.98,77 Z M517.74,116 L517.74,85.52 C517.74,79.52 519.26,75.02 522.3,72.02 C525.34,69.02 529.54,67.52 534.9,67.52 C535.62,67.52 537.02,67.6 539.1,67.76 L539.1,67.76 L539.1,50.48 C534.14,50.48 529.76,51.28 525.96,52.88 C522.16,54.48 519.14,56.84 516.9,59.96 L516.9,59.96 L516.9,51.44 L499.02,51.44 L499.02,116 L517.74,116 Z M580.38,116.96 C587.18,116.96 593.26,115.54 598.62,112.7 C603.98,109.86 608.18,105.92 611.22,100.88 C614.26,95.84 615.78,90.12 615.78,83.72 C615.78,77.32 614.26,71.6 611.22,66.56 C608.18,61.52 603.98,57.58 598.62,54.74 C593.26,51.9 587.18,50.48 580.38,50.48 C573.58,50.48 567.48,51.9 562.08,54.74 C556.68,57.58 552.46,61.52 549.42,66.56 C546.38,71.6 544.86,77.32 544.86,83.72 C544.86,90.12 546.38,95.84 549.42,100.88 C552.46,105.92 556.68,109.86 562.08,112.7 C567.48,115.54 573.58,116.96 580.38,116.96 Z M580.38,101.6 C575.58,101.6 571.62,99.98 568.5,96.74 C565.38,93.5 563.82,89.16 563.82,83.72 C563.82,78.28 565.38,73.94 568.5,70.7 C571.62,67.46 575.58,65.84 580.38,65.84 C585.18,65.84 589.12,67.46 592.2,70.7 C595.28,73.94 596.82,78.28 596.82,83.72 C596.82,89.16 595.28,93.5 592.2,96.74 C589.12,99.98 585.18,101.6 580.38,101.6 Z M638.46,42.44 C641.9,42.44 644.7,41.42 646.86,39.38 C649.02,37.34 650.1,34.76 650.1,31.64 C650.1,28.76 649.02,26.36 646.86,24.44 C644.7,22.52 641.9,21.56 638.46,21.56 C635.02,21.56 632.22,22.56 630.06,24.56 C627.9,26.56 626.82,29.04 626.82,32 C626.82,34.96 627.9,37.44 630.06,39.44 C632.22,41.44 635.02,42.44 638.46,42.44 Z M623.46,140.24 C631.14,140.24 637.12,138.06 641.4,133.7 C645.68,129.34 647.82,123.4 647.82,115.88 L647.82,115.88 L647.82,51.44 L629.1,51.44 L629.1,116 C629.1,119.12 628.42,121.46 627.06,123.02 C625.7,124.58 623.82,125.36 621.42,125.36 C618.3,125.36 615.66,124.6 613.5,123.08 L613.5,123.08 L608.46,136.64 C611.9,139.04 616.9,140.24 623.46,140.24 Z M697.14,116.96 C708.82,116.96 717.7,113.48 723.78,106.52 L723.78,106.52 L713.82,95.72 C711.58,97.88 709.16,99.46 706.56,100.46 C703.96,101.46 700.98,101.96 697.62,101.96 C692.74,101.96 688.66,100.8 685.38,98.48 C682.1,96.16 680.02,93 679.14,89 L679.14,89 L727.98,89 C728.22,85.88 728.34,84.2 728.34,83.96 C728.34,77.24 726.88,71.34 723.96,66.26 C721.04,61.18 717.02,57.28 711.9,54.56 C706.78,51.84 701.06,50.48 694.74,50.48 C688.26,50.48 682.4,51.9 677.16,54.74 C671.92,57.58 667.8,61.54 664.8,66.62 C661.8,71.7 660.3,77.4 660.3,83.72 C660.3,90.12 661.82,95.84 664.86,100.88 C667.9,105.92 672.22,109.86 677.82,112.7 C683.42,115.54 689.86,116.96 697.14,116.96 Z M710.7,78.08 L678.9,78.08 C679.54,73.92 681.3,70.64 684.18,68.24 C687.06,65.84 690.62,64.64 694.86,64.64 C699.02,64.64 702.54,65.86 705.42,68.3 C708.3,70.74 710.06,74 710.7,78.08 L710.7,78.08 Z M772.02,116.96 C778.82,116.96 784.76,115.52 789.84,112.64 C794.92,109.76 798.62,105.76 800.94,100.64 L800.94,100.64 L786.42,92.72 C783.14,98.64 778.3,101.6 771.9,101.6 C767.02,101.6 762.98,100 759.78,96.8 C756.58,93.6 754.98,89.24 754.98,83.72 C754.98,78.2 756.58,73.84 759.78,70.64 C762.98,67.44 767.02,65.84 771.9,65.84 C778.22,65.84 783.06,68.8 786.42,74.72 L786.42,74.72 L800.94,66.92 C798.62,61.64 794.92,57.58 789.84,54.74 C784.76,51.9 778.82,50.48 772.02,50.48 C765.14,50.48 758.96,51.9 753.48,54.74 C748,57.58 743.72,61.52 740.64,66.56 C737.56,71.6 736.02,77.32 736.02,83.72 C736.02,90.12 737.56,95.84 740.64,100.88 C743.72,105.92 748,109.86 753.48,112.7 C758.96,115.54 765.14,116.96 772.02,116.96 Z M839.1,116.96 C842.06,116.96 844.88,116.62 847.56,115.94 C850.24,115.26 852.5,114.24 854.34,112.88 L854.34,112.88 L849.3,99.68 C847.22,101.28 844.7,102.08 841.74,102.08 C839.18,102.08 837.2,101.34 835.8,99.86 C834.4,98.38 833.7,96.28 833.7,93.56 L833.7,93.56 L833.7,67.28 L849.78,67.28 L849.78,52.88 L833.7,52.88 L833.7,37.16 L814.98,37.16 L814.98,52.88 L805.02,52.88 L805.02,67.28 L814.98,67.28 L814.98,93.8 C814.98,101.4 817.08,107.16 821.28,111.08 C825.48,115 831.42,116.96 839.1,116.96 Z" id="Project" fill="#000000" fill-rule="nonzero"></path>
        <path d="M909.68,116 L909.68,66.68 L934.28,107.12 L943.04,107.12 L967.76,65.6 L967.88,116 L986.12,116 L985.88,32 L969.92,32 L938.96,84.2 L907.52,32 L891.44,32 L891.44,116 L909.68,116 Z M1038.32,117.44 C1044.24,117.44 1049.62,116.3 1054.46,114.02 C1059.3,111.74 1063.12,108.48 1065.92,104.24 C1068.72,100 1070.12,95.08 1070.12,89.48 C1070.12,84.28 1068.84,79.7 1066.28,75.74 C1063.72,71.78 1060.24,68.72 1055.84,66.56 C1051.44,64.4 1046.56,63.32 1041.2,63.32 C1032.32,63.32 1025.4,65.8 1020.44,70.76 C1020.76,62.84 1023,56.8 1027.16,52.64 C1031.32,48.48 1036.96,46.4 1044.08,46.4 C1050.4,46.4 1055.64,47.8 1059.8,50.6 L1059.8,50.6 L1067,36.32 C1064.12,34.48 1060.62,33.06 1056.5,32.06 C1052.38,31.06 1048.08,30.56 1043.6,30.56 C1035.12,30.56 1027.66,32.32 1021.22,35.84 C1014.78,39.36 1009.76,44.52 1006.16,51.32 C1002.56,58.12 1000.76,66.28 1000.76,75.8 C1000.76,89.16 1004.08,99.44 1010.72,106.64 C1017.36,113.84 1026.56,117.44 1038.32,117.44 Z M1037.24,102.92 C1032.68,102.92 1029.08,101.76 1026.44,99.44 C1023.8,97.12 1022.48,94.12 1022.48,90.44 C1022.48,86.76 1023.84,83.74 1026.56,81.38 C1029.28,79.02 1032.76,77.84 1037,77.84 C1041.32,77.84 1044.78,78.98 1047.38,81.26 C1049.98,83.54 1051.28,86.6 1051.28,90.44 C1051.28,94.28 1049.98,97.32 1047.38,99.56 C1044.78,101.8 1041.4,102.92 1037.24,102.92 Z" id="M6" fill="#FFFFFF" fill-rule="nonzero"></path>
    </g>
</svg>